<svg width="20" height="20" viewBox="0 0 20 20" fill="none" xmlns="http://www.w3.org/2000/svg">
<path d="M8.33398 4.20571C8.38667 3.87588 8.46532 3.58653 8.57372 3.33317C9.1413 2.00654 10.4173 1.6665 13.268 1.6665C17.5007 1.6665 18.334 3.33317 18.334 6.74492C18.334 9.1665 18.1482 11.0003 16.6673 11.467C16.4173 11.5459 16.1303 11.6096 15.801 11.6665" stroke="black" stroke-width="1.25" stroke-linecap="round" stroke-linejoin="round"/>
<path d="M7.50033 18.3332C11.667 18.3332 13.3337 17.0832 13.3337 12.4998C13.3337 7.9165 11.667 6.6665 7.50033 6.6665C3.33366 6.6665 1.66699 7.63873 1.66699 12.4998C1.66699 17.3609 3.33366 18.3332 7.50033 18.3332Z" stroke="black" stroke-width="1.25" stroke-linecap="round" stroke-linejoin="round"/>
<path d="M5.83431 7.49976C5.83431 7.49976 6.33812 9.49595 5.41764 10.4164C4.49717 11.3369 2.50098 10.8331 2.50098 10.8331" stroke="black" stroke-width="1.25" stroke-linecap="round" stroke-linejoin="round"/>
</svg>
