<svg width="240" height="39" viewBox="0 0 240 39" fill="none" xmlns="http://www.w3.org/2000/svg">
<path d="M226.728 31.5658C225.897 31.5122 225.094 31.2846 224.317 30.8828C221.022 29.1417 219.375 24.6417 219.375 17.3827C219.375 13.4184 219.951 10.2309 221.103 7.82013C222.442 5.06118 224.33 3.62814 226.768 3.521V5.52994C225.991 5.58351 225.201 5.99869 224.397 6.77548C222.549 8.67728 221.585 11.6773 221.504 15.7755V17.9452C221.504 21.9363 222.161 25.0033 223.473 27.1461C224.437 28.6729 225.522 29.4765 226.728 29.5569V31.5658ZM229.179 31.5658V29.5569C229.339 29.5301 229.5 29.4899 229.661 29.4363C232.848 28.5524 234.442 24.722 234.442 17.9452V15.7755C234.442 12.6148 233.786 10.0166 232.473 7.98085C231.455 6.42726 230.344 5.6103 229.138 5.52994V3.521C230.21 3.57457 231.214 3.90939 232.152 4.52547C235.071 6.53441 236.531 10.8202 236.531 17.3827C236.531 21.6149 235.942 24.9631 234.763 27.4274C233.451 30.0792 231.589 31.4587 229.179 31.5658Z" fill="black"/>
<path d="M194.998 10.6729C195.186 8.42285 196.136 6.57462 197.851 5.12818C199.056 4.13711 200.462 3.5746 202.07 3.44067V5.44962C201.212 5.44962 200.328 5.78444 199.418 6.45409C198.052 7.49874 197.208 9.03892 196.886 11.0747L194.998 10.6729ZM195.761 31.5659V29.5167H211.994V31.5659H195.761ZM195.761 27.789C195.761 23.8783 198.467 20.6506 203.878 18.1059C204.011 18.0524 204.199 17.972 204.44 17.8649C204.815 17.6774 205.056 17.5568 205.163 17.5033C207.145 16.4854 208.471 15.5613 209.141 14.7309C209.837 13.8202 210.186 12.8023 210.186 11.6773C209.945 7.65945 207.869 5.58354 203.958 5.44962V3.44067C207.949 3.44067 210.52 4.99426 211.672 8.10142C212.074 9.17285 212.262 10.3648 212.235 11.6773C212.208 14.1416 211.096 16.1238 208.9 17.6238C208.498 17.8917 208.056 18.1595 207.574 18.4274C207.279 18.5881 206.744 18.856 205.967 19.231C203.101 20.6238 201.119 21.8962 200.02 23.0479C198.654 24.4676 197.971 26.048 197.971 27.789H195.761Z" fill="black"/>
<path fill-rule="evenodd" clip-rule="evenodd" d="M180.064 8.98732H158.136C156.459 8.98732 155.169 10.4062 155.169 11.9541V23.3054C155.169 24.9823 156.588 26.2722 158.136 26.2722H179.935C180.451 26.2722 180.709 26.6592 180.709 27.0462V30.7869C180.709 31.3029 180.322 31.5609 179.935 31.5609H158.136C153.492 31.5609 149.751 27.8201 149.751 23.1764V11.8251C149.751 7.18144 153.492 3.44067 158.136 3.44067H179.935C180.451 3.44067 180.709 3.82765 180.709 4.21462V7.95539C180.838 8.72934 180.451 8.98732 180.064 8.98732Z" fill="black"/>
<path fill-rule="evenodd" clip-rule="evenodd" d="M103.177 3.44067H126.912C131.556 3.44067 135.296 7.18144 135.296 11.8251C135.296 12.3411 135.296 12.9861 135.167 13.502C134.394 17.3718 130.911 20.0806 127.041 20.0806H125.493L135.167 30.013C135.425 30.271 135.554 30.6579 135.425 30.9159C135.296 31.3029 135.038 31.4319 134.651 31.4319H129.234C128.976 31.4319 128.847 31.3029 128.589 31.1739L117.238 20.0806H113.11C112.594 20.0806 112.336 19.6936 112.336 19.3067V15.6949C112.336 15.1789 112.723 14.9209 113.11 14.9209H121.236H126.912C128.589 14.9209 129.879 13.502 129.879 11.9541C129.879 10.2772 128.46 8.98732 126.912 8.98732H118.785H109.885H108.466H103.306C102.79 8.98732 102.532 8.60035 102.532 8.21337V5.63353V4.21462C102.274 3.82765 102.661 3.44067 103.177 3.44067ZM103.048 31.5609C102.532 31.5609 102.146 31.1739 102.146 30.7869V18.1457H102.275V17.1138V16.3399V15.6949C102.275 15.1789 102.661 14.9209 103.048 14.9209H106.789C107.305 14.9209 107.563 15.3079 107.563 15.6949V16.3399V16.9848V30.6579C107.563 31.1739 107.176 31.4319 106.789 31.4319L103.048 31.5609Z" fill="black"/>
<path fill-rule="evenodd" clip-rule="evenodd" d="M56.6113 3.44067H79.4429C84.0866 3.44067 87.8273 7.18144 87.8273 11.8251C87.8273 12.3411 87.8273 12.9861 87.6984 13.502C87.4404 14.792 86.7954 15.9529 86.0215 16.9848C85.7635 17.2428 85.7635 17.6298 86.0215 17.8878C86.7954 18.9197 87.3114 20.2096 87.5694 21.4995C87.6983 22.0155 87.6984 22.6605 87.6984 23.1764C87.6984 27.8201 83.9576 31.5609 79.3139 31.5609H56.7403H56.6113H54.8054C54.2895 31.5609 54.0315 31.1739 54.0315 30.7869V27.0462C54.0315 26.5302 54.4185 26.2722 54.8054 26.2722H55.7084H56.6113H58.4172H79.3139C80.9908 26.2722 82.2807 24.8533 82.2807 23.3054C82.2807 21.6285 80.8618 20.3386 79.3139 20.3386H60.7391C60.2231 20.3386 59.9651 19.9516 59.9651 19.5646V15.6949C59.9651 15.1789 60.3521 14.9209 60.7391 14.9209H79.4429C81.1198 14.9209 82.4097 13.502 82.4097 11.9541C82.4097 10.2772 80.9908 8.98732 79.4429 8.98732H58.5462H56.7403H55.8374H54.9344C54.4185 8.98732 54.1605 8.60035 54.1605 8.21337V4.21462C54.1605 3.69866 54.5475 3.44067 54.9344 3.44067H56.6113Z" fill="black"/>
<path fill-rule="evenodd" clip-rule="evenodd" d="M12.4532 31.4319C7.80949 31.4319 4.06873 27.8201 4.06873 23.1764V11.8251C4.06873 7.18144 7.80949 3.44067 12.4532 3.44067H31.415C36.0587 3.44067 39.7995 7.18144 39.7995 11.8251V23.1764C39.7995 27.8201 36.0587 31.5609 31.415 31.5609H25.0944V26.1432H31.415C33.0919 26.1432 34.3818 24.7243 34.3818 23.1764V11.8251C34.3818 10.1482 32.9629 8.85833 31.415 8.85833H12.4532C10.7763 8.85833 9.4864 10.2772 9.4864 11.8251V23.1764C9.4864 24.8533 10.9053 26.1432 12.4532 26.1432H15.6672V31.4319H12.4532Z" fill="black"/>
<path d="M19.236 22.9768C19.236 22.5349 19.5941 22.1768 20.036 22.1768H24.6813C25.1231 22.1768 25.4813 22.5349 25.4813 22.9768V34.7597C25.4813 35.2015 25.1231 35.5597 24.6813 35.5597H20.036C19.5941 35.5597 19.236 35.2015 19.236 34.7597V22.9768Z" fill="#2D73FF"/>
</svg>
