<svg width="51" height="50" viewBox="0 0 51 50" fill="none" xmlns="http://www.w3.org/2000/svg">
<rect x="0.5" width="50" height="50" rx="25" fill="black"/>
<path fill-rule="evenodd" clip-rule="evenodd" d="M31.3912 14.1655C29.6646 13.2514 28.354 11.6458 27.8365 9.71606C27.6769 10.3061 27.5947 10.9251 27.5947 11.5635C27.5947 12.0617 27.6479 12.5453 27.7446 13.0144C27.7446 13.0144 27.7446 13.0144 27.7446 13.0193C27.7446 13.0241 27.7494 13.0338 27.7494 13.0386C27.88 13.6673 28.0928 14.2622 28.3782 14.8135C27.7688 14.3638 27.2271 13.8269 26.7725 13.2224C26.1631 17.9475 27.88 22.866 31.0188 26.1063C35.1151 30.8749 31.338 38.9661 24.954 38.7533C15.9198 38.8307 14.3722 25.526 23.0389 23.4367L23.034 23.4125C25.3458 22.6629 26.4291 21.1588 26.6177 19.2049C23.2807 21.9084 18.0091 18.5568 19.1021 14.3589C6.57604 20.5252 11.2286 40.5282 25.428 40.2816C31.6136 40.2816 36.8465 36.1901 38.5634 30.5654C40.614 24.0074 37.2963 17.0189 31.3912 14.1655Z" fill="#12FE74"/>
</svg>
